<svg xmlns="http://www.w3.org/2000/svg" xmlns:xlink="http://www.w3.org/1999/xlink" version="1.1" x="0px" y="0px" viewBox="74 47 1000 810.9" style="enable-background:new 0 0 1117.4 865.8;" xml:space="preserve" data-sector="28" data-detail="16" class="max-heigth-50vh">
	<g id="Salle">
	<polygon id="batiment" points="340 22.5 340 152.8 19.5 152.8 19.5 578.2 325 578.2 325 855.6 1104 855.6 1104 22.5 340 22.5" style="fill: #fff; stroke: #1d1d1b; stroke-miterlimit: 10;"></polygon>
	<g id="sectors">
		<polygon id="z-bloc-1" points="228.4 242.5 205.5 299.6 210.7 346.9 247.1 395.2 335.4 388 400.4 393.2 457.6 423.3 567.7 378.1 599.4 381.7 686.7 323.5 668 199.8 542.3 199.8 523.6 227.9 488.7 218.6 424.8 240.4 354.7 227.9 228.4 242.5" style="fill: #e2e3e8;"></polygon>
		<polygon id="z-bloc-2" points="638.6 506.4 593.5 478.5 460.6 498.1 450 495.1 408.9 509.3 391.7 554.9 403.5 599.9 414.3 633.7 474 644 533.8 631.3 567.6 640.6 594.5 622.5 628.8 625.9 663.6 641.6 686.7 632.3 750.2 639.1 790.9 650.9 831.1 644.5 907 656.8 961.8 589.7 961.8 569.6 903.1 498.1 840.4 513.7 768.9 513.2 692.4 492.7 674.8 501.9 638.6 506.4" style="fill: #e2e3e8;"></polygon>
		<polygon id="z-bloc-3" points="782.2 275.4 775.6 285.8 738.5 294 721 359.9 789.7 405.4 839.7 401.7 923.8 362.1 968.4 288.3 931.3 229 912.2 181.9 881.7 168.7 826.1 183.1 830.9 202.9 813.6 259.4 782.2 275.4" style="fill: #e2e3e8;"></polygon>
		<polygon id="z-bloc-4" points="861.4 848.3 861.4 666.2 398.2 664.5 398.2 700.4 823.8 701.3 823.8 848.3 861.4 848.3" style="fill: #e2e3e8;"></polygon>
		<polygon id="z-bloc-5" points="1017 237.5 968.4 237.5 968.4 398.7 968.4 398.7 968.4 615 968.4 615 968.4 768.8 968.4 807.3  1017 807.3  1017 215.8" style="fill: #e2e3e8;"></polygon>
	</g>
	<polygon id="bloc_S" points="256.4 272.1 241.9 305.9 245 335 264.2 358.3 335.4 352.6 410.3 358.3 460.6 384.3 563.1 340.2 590.1 343.8 646.7 306.4 636.3 235.7 561 235.7 538.1 268.4 490.8 257.5 426.9 277.8 351.5 264.8 256.4 272.1" style="fill: #9a9ea4; stroke: #1d1d1b; stroke-miterlimit: 10;"></polygon>
	<polygon id="bloc_E" points="870.1 209.2 853.8 246.2 853.8 266.6 834.9 288.9 809.2 301.2 790 319.7 779.7 323.2 768.7 328.5 766.2 348 802 369 828.3 358 840.9 361.8 868.5 341.1 894.3 332 926 289.1 900.3 247.8 884.2 209.2 870.1 209.2" style="fill: #9a9ea4; stroke: #1d1d1b; stroke-miterlimit: 10;"></polygon>
	<polygon id="bloc_M" points="630.2 543.3 586.1 516.6 479.6 532.8 467.9 537.7 453.2 533.2 437.1 538.4 429.9 556.5 441.9 600.9 472.8 608.1 534.6 594.2 561.3 600.9 586.5 585.5 639.2 591.1 662.2 602.8 680.3 594.9 758.2 603.6 794.3 614.5 828.6 607.3 893.3 618.2 924.2 579.8 889.6 539.2 882.4 536.9 838.4 549.7 766.8 549.4 697.2 531.3 684 538.1 630.2 543.3" style="fill: #9a9ea4; stroke: #1d1d1b; stroke-miterlimit: 10;"></polygon>
	<polygon id="matelas_N" points="419.5 755.1 673.4 755.1 673.4 811.5 424.7 811.5 425.5 848.3 817 848.3 817 720.1 419.5 720.1 419.5 755.1" style="fill: #e2e3e8;"></polygon>
	<polygon id="bloc_P1" points="1021.2 235.7 1009.3 235.7 1009.3 412.4 1004.1 423.3 1004.1 618.2 995.6 637.2 995.6 807.3 1021.2 807.3 1021.2 235.7" style="fill: #9a9ea4; stroke: #1d1d1b; stroke-miterlimit: 10;"></polygon>
	<polygon id="bloc_P2" points="825.5 848.3 817 848.3 817 720.1 414.4 720.1 414.4 697.9 825.5 697.9 825.5 848.3" style="fill: #9a9ea4; stroke: #1d1d1b; stroke-miterlimit: 10;"></polygon>
	<rect    id="bloc_N" x="429.9" y="840.7" width="387.1" height="7.6" style="fill: #9a9ea4; stroke: #1d1d1b; stroke-miterlimit: 10;"></rect>
	<polygon points="158.7 27.7 158.7 86.4 145.3 86.4 179 144.7 212.7 86.4 199.3 86.4 199.3 27.7 158.7 27.7" style="fill: #dbdcda;"></polygon>
	<polyline points="212.7 152.8 212.7 199.8 151.3 199.8 151.3 310 172.3 310 182 369 223.2 405.4 235.2 446.4 271.1 468.8 271.1 578.2" style="fill: none; stroke: #1b1b1b; stroke-miterlimit: 10;"></polyline>
	<polyline points="19.5 287.1 85.4 287.1 85.4 578.2" style="fill: none; stroke: #1b1b1b; stroke-miterlimit: 10;"></polyline>
	<rect x="869.8" y="840.7" width="92" height="7.6" style="fill: #9a9ea4; stroke: #1d1d1b; stroke-miterlimit: 10;"></rect>
	<rect x="968.4" y="57.2" width="42.5" height="90.7" style="fill: #e2e3e8;"></rect>
	<polygon points="1021.2 158.8 1021.2 46.5 981.1 46.5 981.1 57.2 1010.9 57.2 1010.9 146.9 981.1 146.9 981.1 158.8 1021.2 158.8" style="fill: #9a9ea4; stroke: #1d1d1b; stroke-miterlimit: 10;"></polygon>
	</g>


<g id="sections">
	<g id="s-bloc-1">
		<circle id="28" cx="646.7"  cy="323.1"      r="76.48"   style="fill-opacity: 0"></circle>
		<circle id="29" cx="557.7"  cy="360.5"      r="76.48"   style="fill-opacity: 0"></circle>
		<circle id="30" cx="462.6"  cy="400.1"      r="76.48"   style="fill-opacity: 0"></circle>
		<circle id="31" cx="344.1"  cy="374"        r="76.48"   style="fill-opacity: 0"></circle>
		<circle id="32" cx="244.3"  cy="360.5"      r="76.48"   style="fill-opacity: 0"></circle>
		<circle id="33" cx="279.6"  cy="253.1"      r="76.48"   style="fill-opacity: 0"></circle>
		<circle id="34" cx="379.7"  cy="253.1"      r="76.48"   style="fill-opacity: 0"></circle>
		<circle id="35" cx="486.1"  cy="239.4"      r="76.48"   style="fill-opacity: 0"></circle>
		<circle id="36" cx="606.8"  cy="217.7"      r="76.48"   style="fill-opacity: 0"></circle>
	</g>
    <g id="s-bloc-2">
		<circle id="17" cx="883.4"  cy="635.2"      r="65.52"   style="fill-opacity: 0"></circle>
		<circle id="18" cx="774.7"  cy="626.7"      r="65.52"   style="fill-opacity: 0"></circle>
		<circle id="19" cx="693"    cy="614"        r="65.52"   style="fill-opacity: 0"></circle>
		<circle id="20" cx="606.8"  cy="603.5"      r="65.52"   style="fill-opacity: 0"></circle>
		<circle id="21" cx="496.5"  cy="619.7"      r="65.52"   style="fill-opacity: 0"></circle>
		<circle id="22" cx="414.1"  cy="560.6"      r="65.52"   style="fill-opacity: 0"></circle>
		<circle id="23" cx="523.8"  cy="507.6"      r="65.52"   style="fill-opacity: 0"></circle>
		<circle id="24" cx="609.8"  cy="508.1"      r="65.52"   style="fill-opacity: 0"></circle>
		<circle id="25" cx="701.5"  cy="513.4"      r="65.52"   style="fill-opacity: 0"></circle>
		<circle id="26" cx="794.9"  cy="530"        r="65.52"   style="fill-opacity: 0"></circle>
		<circle id="27" cx="903.8"  cy="530"        r="65.52"   style="fill-opacity: 0"></circle>
	</g>
	<g id="s-bloc-3">
		<circle id="12" cx="915.8"  cy="331.6"      r="65.08"   style="fill-opacity: 0"></circle>
		<circle id="13" cx="809.7"  cy="382.5"      r="65.08"   style="fill-opacity: 0"></circle>
		<circle id="14" cx="790.4"  cy="291.1"      r="65.08"   style="fill-opacity: 0"></circle>
		<circle id="15" cx="866.4"  cy="190.2"      r="65.08"   style="fill-opacity: 0"></circle>
	</g>
    <g id="s-bloc-4">
		<circle id="1"  cx="469.1"   cy="683"       r="60.24"   style="fill-opacity: 0"></circle>
		<circle id="2"  cx="549.2"   cy="683"       r="60.24"   style="fill-opacity: 0"></circle>
		<circle id="3"  cx="629.4"   cy="683"       r="60.24"   style="fill-opacity: 0"></circle>
		<circle id="4"  cx="709.5"   cy="683"       r="60.24"   style="fill-opacity: 0"></circle>
		<circle id="5"  cx="789.7"   cy="683"       r="60.24"   style="fill-opacity: 0"></circle>
  		<circle id="6"  cx="840.1"   cy="784.2"     r="60.24"   style="fill-opacity: 0"></circle>
	</g>
    <g id="s-bloc-5">
		<circle id="7"  cx="981.1"  cy="676.5"      r="43.4"    style="fill-opacity: 0"></circle>
		<circle id="8"  cx="989.6"  cy="586.7"      r="43.4"    style="fill-opacity: 0"></circle>
		<circle id="9"  cx="986.3"  cy="482.6"      r="43.4"    style="fill-opacity: 0"></circle>
		<circle id="10" cx="994.8"  cy="386"        r="43.4"    style="fill-opacity: 0"></circle>
		<circle id="11" cx="998.1"  cy="274.1"      r="43.4"    style="fill-opacity: 0"></circle>
	</g>
</g>
</svg>